<svg height="512pt" viewBox="0 -31 512 511" width="512pt" xmlns="http://www.w3.org/2000/svg"><path d="m512 128.070312-179.480469-20.015624 20.015625 340.660156h159.464844zm0 0" fill="#005fe1"/><path d="m256 448.714844h96.535156v-320.644532l-116.550781-20.015624zm0 0" fill="#03232e"/><path d="m0 128.070312v320.644532h256v-340.660156zm0 0" fill="#07485e"/><path d="m256 .5-20.015625 63.785156 20.015625 63.785156h256v-127.570312zm0 0" fill="#b4d2d7"/><path d="m0 .5h256v127.570312h-256zm0 0" fill="#e1ebf0"/><path d="m47.839844 49.285156h31.890625v30h-31.890625zm0 0" fill="#ff4a4a"/><path d="m111.625 49.285156h31.894531v30h-31.894531zm0 0" fill="#ffd422"/><path d="m175.410156 49.285156h31.894532v30h-31.894532zm0 0" fill="#00cc76"/><path d="m271.945312 305.285156h32.75v30h-32.75zm0 0" fill="#00cc76"/><path d="m47.839844 305.285156h192.214844v30h-192.214844zm0 0" fill="#00ff94"/><path d="m271.945312 177.714844h32.75v30h-32.75zm0 0" fill="#00cc76"/><path d="m47.839844 177.714844h192.214844v30h-192.214844zm0 0" fill="#00ff94"/><path d="m47.839844 241.5h32.75v30h-32.75zm0 0" fill="#00ff94"/><path d="m47.839844 369.070312h32.75v30h-32.75zm0 0" fill="#00ff94"/><g fill="#03232e"><path d="m400.375 241.5h63.785156v30h-63.785156zm0 0"/><path d="m400.375 305.285156h63.785156v30h-63.785156zm0 0"/><path d="m400.375 177.285156h63.785156v30h-63.785156zm0 0"/><path d="m400.375 369.070312h63.785156v30h-63.785156zm0 0"/></g><path d="m304.695312 271.5h-48.695312l-10.007812-15 10.007812-15h48.695312zm0 0" fill="#00cc76"/><path d="m304.695312 399.070312h-48.695312l-10.007812-15 10.007812-15h48.695312zm0 0" fill="#00cc76"/><path d="m112.480469 241.5h143.519531v30h-143.519531zm0 0" fill="#00ff94"/><path d="m112.480469 369.070312h143.519531v30h-143.519531zm0 0" fill="#00ff94"/></svg>