<svg height="512pt" viewBox="0 0 512 512.00438" width="512pt" xmlns="http://www.w3.org/2000/svg"><path d="m458.699219 512.003906-146.003907-146.003906 53.300782-53.300781 146.003906 146.003906zm0 0" fill="#87a0af"/><path d="m221.535156 0-20.015625 220.273438 20.015625 222.796874c122.15625 0 221.535156-99.378906 221.535156-221.535156 0-122.152344-99.378906-221.535156-221.535156-221.535156zm0 0" fill="#b4d2d7"/><path d="m.00390625 221.535156c0 122.15625 99.37890575 221.535156 221.53124975 221.535156v-443.070312c-122.152344 0-221.53124975 99.382812-221.53124975 221.535156zm0 0" fill="#e1ebf0"/><path d="m221.535156 52.625-20.015625 167.648438 20.015625 170.171874c93.140625 0 168.910156-75.769531 168.910156-168.910156 0-93.136718-75.769531-168.910156-168.910156-168.910156zm0 0" fill="#212cbb"/><path d="m52.625 221.535156c0 93.140625 75.773438 168.910156 168.914062 168.910156v-337.820312c-93.140624 0-168.914062 75.773438-168.914062 168.910156zm0 0" fill="#005fe1"/><path d="m305.507812 157.074219-83.972656 83.96875-10.007812 30.960937 10.007812 11.464844 105.183594-105.183594zm0 0" fill="#efe2dd"/><path d="m198.578125 264.003906-61.011719-61.015625-21.210937 21.214844 82.222656 82.226563 22.957031-22.960938v-42.425781zm0 0" fill="#fff5f5"/></svg>