<svg height="512pt" viewBox="0 0 512 512" width="512pt" xmlns="http://www.w3.org/2000/svg"><path d="m293.207031 382.714844-57.222656-20.019532 20.015625 134.304688h37.207031zm0 0" fill="#87a0af"/><path d="m218.792969 382.714844v114.285156h37.207031v-134.304688zm0 0" fill="#b4d2d7"/><path d="m512 482h-256l-10.007812 15 10.007812 15h256zm0 0" fill="#b4d2d7"/><path d="m0 482h256v30h-256zm0 0" fill="#e1ebf0"/><path d="m256 382.714844h256v-127.574219l-276.015625-20.015625zm0 0" fill="#03232e"/><path d="m235.984375 107.554688 20.015625 147.585937h256v-127.570313zm0 0" fill="#07485e"/><path d="m0 382.714844h256v-147.589844l-256 20.015625zm0 0" fill="#07485e"/><path d="m0 127.570312v127.570313h256v-147.585937zm0 0" fill="#0b799d"/><path d="m512 0h-256l-20.015625 63.785156 20.015625 63.785156h256zm0 0" fill="#03232e"/><path d="m0 0h256v127.570312h-256zm0 0" fill="#07485e"/><path d="m47.839844 48.785156h31.890625v30h-31.890625zm0 0" fill="#00ff94"/><path d="m400.375 78.785156h-144.375l-10.007812-15 10.007812-15h144.375zm0 0" fill="#b4d2d7"/><path d="m47.839844 176.355469h31.890625v30h-31.890625zm0 0" fill="#00ff94"/><path d="m432.269531 48.785156h31.890625v30h-31.890625zm0 0" fill="#b4d2d7"/><path d="m432.269531 176.355469h31.890625v30h-31.890625zm0 0" fill="#b4d2d7"/><path d="m47.839844 303.925781h31.890625v30h-31.890625zm0 0" fill="#00ff94"/><g fill="#b4d2d7"><path d="m432.269531 303.925781h31.890625v30h-31.890625zm0 0"/><path d="m400.375 333.925781h-144.375l-10.007812-15 10.007812-15h144.375zm0 0"/><path d="m400.375 206.355469h-144.375l-10.007812-15 10.007812-15h144.375zm0 0"/></g><path d="m111.625 48.785156h144.375v30h-144.375zm0 0" fill="#e1ebf0"/><path d="m111.625 176.355469h144.375v30h-144.375zm0 0" fill="#e1ebf0"/><path d="m111.625 303.925781h144.375v30h-144.375zm0 0" fill="#e1ebf0"/></svg>