<svg height="512pt" viewBox="0 0 512 512" width="512pt" xmlns="http://www.w3.org/2000/svg"><path d="m512 70.929688h-256l-20.015625 297.253906 276.015625-20.015625zm0 0" fill="#03232e"/><path d="m0 70.929688v277.238281l256 20.015625v-297.253906zm0 0" fill="#07485e"/><path d="m341.046875 497v-63.785156l-105.0625-20.015625 20.015625 83.800781zm0 0" fill="#87a0af"/><path d="m170.953125 497h85.046875v-83.800781l-85.046875 20.015625zm0 0" fill="#b4d2d7"/><path d="m388.886719 512v-30h-132.886719l-10.007812 15 10.007812 15zm0 0" fill="#b4d2d7"/><path d="m123.113281 482h132.886719v30h-132.886719zm0 0" fill="#e1ebf0"/><path d="m256 348.167969-20.015625 42.523437 20.015625 42.523438h256v-85.046875zm0 0" fill="#b4d2d7"/><path d="m0 348.167969h256v85.046875h-256zm0 0" fill="#e1ebf0"/><path d="m256 0-20.015625 152.332031 20.015625 121.5625h51.6875v-150.785156h55.136719zm0 0" fill="#ff4a4a"/><path d="m149.175781 123.109375h55.136719v150.785156h51.6875v-273.894531zm0 0" fill="#ff9f22"/></svg>